<svg xmlns="http://www.w3.org/2000/svg" viewBox="0 0 32 128" aria-labelledby="title">


<view id="codepen-view" viewBox="0 0 32 32"/>
<view id="twitter-view" viewBox="0 32 32 32"/>
<view id="github-view" viewBox="0 64 32 32"/>
<view id="dribbble-view" viewBox="0 96 32 32"/>
<view id="behance-view" viewBox="0 128 32 32"/>

<g id="codepen">
    <title id="tittle">CodePen icon</title>
    <circle fill="#000" cx="16" cy="16" r="16"/>
    <polygon fill="none" stroke="white" stroke-width="2" stroke-linejoin="round" points="16.2,6.2 6.2,12.8 16.2,19.6 26.4,12.8"/>
    <polygon fill="none" stroke="white" stroke-width="2" stroke-linejoin="round" points="16.2,12.4 6.2,18.9 16.2,25.7 26.4,18.9"/>
    <line stroke="white" stroke-width="2" x1="16.2" y1="6.2" x2="16.2" y2="13.3"/>
    <line stroke="white" stroke-width="2" x1="16.2" y1="19.6" x2="16.2" y2="24.8"/>
    <line stroke="white" stroke-width="2" x1="6.2" y1="12.8" x2="6.2" y2="18.6"/>
    <line stroke="white" stroke-width="2" x1="26.4" y1="12.8" x2="26.4" y2="18.6"/>
</g>


<g id="twitter" transform="translate(0 32)">
    <title id="title">Twitter icon</title>
    <circle fill="#00ACEE" cx="16" cy="16" r="16"/>
    <path fill="white" d="M24.7,13.8c0,0-3.6-10-8.9-1.2c-0.5,0-8.3-3-8.3-3s5,8.9,5.3,9.2c0.4,2.1-8.2,1.3-8.2,1.3s7,5.4,13.8,3.6 c3.3,0,7.3-8,7.3-8l2.3-0.8L24.7,13.8z"/>
</g>
<g id="github" transform="translate(0 64)">
    <title id="title">GitHub icon</title>
<path fill="black" d="M16,0C7.2,0,0,7.2,0,16c0,7.1,4.6,13.1,11,15.2 c0.8,0.1,1.1-0.3,1.1-0.8c0-0.4,0-1.4,0-2.7c-4.5,1-5.4-2.1-5.4-2.1c-0.7-1.8-1.8-2.3-1.8-2.3c-1.5-1,0.1-1,0.1-1 c1.6,0.1,2.5,1.7,2.5,1.7c1.4,2.4,3.7,1.7,4.7,1.3c0.1-1,0.6-1.7,1-2.1c-3.6-0.4-7.3-1.8-7.3-7.9c0-1.7,0.6-3.2,1.6-4.3 c-0.2-0.4-0.7-2,0.2-4.2c0,0,1.3-0.4,4.4,1.6c1.3-0.4,2.6-0.5,4-0.5c1.4,0,2.7,0.2,4,0.5c3.1-2.1,4.4-1.6,4.4-1.6 c0.9,2.2,0.3,3.8,0.2,4.2c1,1.1,1.6,2.5,1.6,4.3c0,6.2-3.7,7.5-7.3,7.9c0.6,0.5,1.1,1.5,1.1,3c0,2.1,0,3.9,0,4.4 c0,0.4,0.3,0.9,1.1,0.8C27.4,29.1,32,23.1,32,16C32,7.2,24.9,0,16,0z"/>
</g>
<g id="dribbble" transform="translate(0 96)">
    <title id="tittle">dribbble icon</title>
    <circle fill="white" cx="16" cy="16" r="16"/>
    <circle fill="#EA4C89" stroke="#C32361" stroke-width="2" cx="16.2" cy="16.1" r="10.6"/>
    <path fill="none" stroke="#C32361" stroke-width="2" d="M21.3,25.4c-1.2-9.5-9.8-18.7-9.8-18.7"/>
    <path fill="none" stroke="#C32361" stroke-width="2" d="M5.8,14.5C17.9,17,22.7,7.8,22.7,7.8"/>
    <path fill="none" stroke="#C32361" stroke-width="2" d="M8.3,23.2c6.1-9.8,18.5-6.6,18.5-6.6"/>
</g>
<g id="vimeo" transform="translate(0 128)">
    <title id="title">Vimeo icon</title>
    <circle fill="#1AB6E9" cx="16" cy="16" r="16"/>
    <path fill="white" d="M26.2,11.6c-0.1,2-1.5,4.8-4.3,8.4c-2.9,3.7-5.3,5.6-7.3,5.6c-1.2,0-2.3-1.1-3.1-3.4 c-0.6-2.1-1.1-4.1-1.7-6.2c-0.6-2.3-1.3-3.4-2-3.4c-0.2,0-0.7,0.3-1.6,1l-1-1.3c1-0.9,2.1-1.8,3.1-2.7c1.4-1.2,2.4-1.8,3.1-1.9 c1.6-0.2,2.6,1,3,3.3c0.4,2.6,0.7,4.2,0.8,4.8c0.5,2.1,1,3.2,1.6,3.2c0.4,0,1.1-0.7,2-2.1c0.9-1.4,1.4-2.4,1.4-3.2 c0.1-1.2-0.3-1.8-1.4-1.8c-0.5,0-1,0.1-1.6,0.3c1-3.4,3-5,5.9-4.9C25.3,7.5,26.4,8.9,26.2,11.6z"/>
</g>
</svg>